<svg width="72" height="72" viewBox="0 0 72 72" fill="none" xmlns="http://www.w3.org/2000/svg">
<g filter="url(#filter0_dd_542_327)">
<rect x="12" y="2" width="48" height="48" rx="6" fill="#111827"/>
<path d="M36 20V18M36 20C34.8954 20 34 20.8954 34 22C34 23.1046 34.8954 24 36 24M36 20C37.1046 20 38 20.8954 38 22C38 23.1046 37.1046 24 36 24M30 32C31.1046 32 32 31.1046 32 30C32 28.8954 31.1046 28 30 28M30 32C28.8954 32 28 31.1046 28 30C28 28.8954 28.8954 28 30 28M30 32V34M30 28V18M36 24V34M42 32C43.1046 32 44 31.1046 44 30C44 28.8954 43.1046 28 42 28M42 32C40.8954 32 40 31.1046 40 30C40 28.8954 40.8954 28 42 28M42 32V34M42 28V18" stroke="white" stroke-width="2" stroke-linecap="round" stroke-linejoin="round"/>
</g>
<defs>
<filter id="filter0_dd_542_327" x="0" y="0" width="72" height="72" filterUnits="userSpaceOnUse" color-interpolation-filters="sRGB">
<feFlood flood-opacity="0" result="BackgroundImageFix"/>
<feColorMatrix in="SourceAlpha" type="matrix" values="0 0 0 0 0 0 0 0 0 0 0 0 0 0 0 0 0 0 127 0" result="hardAlpha"/>
<feMorphology radius="2" operator="erode" in="SourceAlpha" result="effect1_dropShadow_542_327"/>
<feOffset dy="4"/>
<feGaussianBlur stdDeviation="3"/>
<feColorMatrix type="matrix" values="0 0 0 0 0 0 0 0 0 0 0 0 0 0 0 0 0 0 0.05 0"/>
<feBlend mode="normal" in2="BackgroundImageFix" result="effect1_dropShadow_542_327"/>
<feColorMatrix in="SourceAlpha" type="matrix" values="0 0 0 0 0 0 0 0 0 0 0 0 0 0 0 0 0 0 127 0" result="hardAlpha"/>
<feMorphology radius="3" operator="erode" in="SourceAlpha" result="effect2_dropShadow_542_327"/>
<feOffset dy="10"/>
<feGaussianBlur stdDeviation="7.5"/>
<feColorMatrix type="matrix" values="0 0 0 0 0 0 0 0 0 0 0 0 0 0 0 0 0 0 0.1 0"/>
<feBlend mode="normal" in2="effect1_dropShadow_542_327" result="effect2_dropShadow_542_327"/>
<feBlend mode="normal" in="SourceGraphic" in2="effect2_dropShadow_542_327" result="shape"/>
</filter>
</defs>
</svg>
